Coordinates
version=1
nRows=8
nColumns=40
inDegrees=yes

Units are S.I. units (second, meters, Newtons, ...)
Angles are in degrees.

endheader
time	pelvis_tilt	pelvis_list	pelvis_rotation	pelvis_tx	pelvis_ty	pelvis_tz	hip_flexion_r	hip_adduction_r	hip_rotation_r	knee_angle_r	knee_angle_r_beta	ankle_angle_r	subtalar_angle_r	mtp_angle_r	hip_flexion_l	hip_adduction_l	hip_rotation_l	knee_angle_l	knee_angle_l_beta	ankle_angle_l	subtalar_angle_l	mtp_angle_l	lumbar_extension	lumbar_bending	lumbar_rotation	arm_flex_r	arm_add_r	arm_rot_r	elbow_flex_r	pro_sup_r	wrist_flex_r	wrist_dev_r	arm_flex_l	arm_add_l	arm_rot_l	elbow_flex_l	pro_sup_l	wrist_flex_l	wrist_dev_l
      4.65000000	     -4.45371672	     -2.74668523	      2.59034387	      0.97718935	      0.90861588	      0.56593892	     16.63423930	      4.78725551	     -7.08408763	     32.38723575	     32.38723575	     20.31910722	    -12.69644882	      1.63212271	     31.58175176	    -11.70682137	      3.02604446	     54.51786250	     54.51786250	     18.33466889	    -19.57026949	     22.97577196	    -11.50033702	      4.60905490	      1.12426006	     26.37133268	    -17.83088398	     -5.34348250	     79.90932282	     44.75303585	      0.00000000	      0.00000000	      2.67117548	     -6.97288620	      4.58712542	     24.07181631	     45.80882565	      0.00000000	      0.00000000
      4.66885714	     -4.60619778	     -2.56301467	      2.95366051	      0.97477725	      0.90969466	      0.56601198	     16.25242319	      4.55325255	     -7.40178953	     31.82162861	     31.82162861	     20.27772187	    -12.50655641	      1.70366478	     32.06516876	    -11.15116359	      3.06001447	     51.61295372	     51.61295372	     17.78448779	    -19.51530091	     22.86479990	    -11.25349299	      4.31429494	      1.41642731	     28.66389796	    -17.91069579	     -5.67686950	     81.84220707	     44.71512345	      0.00000000	      0.00000000	      0.97678670	     -7.01920518	      4.68768865	     23.58093018	     45.75433499	      0.00000000	      0.00000000
      4.68771429	     -4.60314341	     -2.31877911	      3.34360613	      0.97252205	      0.91147408	      0.56566118	     15.57915396	      4.18316832	     -7.90883126	     31.08207946	     31.08207946	     20.20767985	    -11.88805322	      1.65888562	     32.11484312	    -10.48161827	      3.08329947	     48.27048538	     48.27048538	     16.73309275	    -19.42626416	     22.03861020	    -11.24876231	      4.12653022	      1.24012574	     31.04608876	    -17.50804850	     -5.81440366	     84.91607358	     44.63796421	      0.00000000	      0.00000000	     -0.93876577	     -7.21343092	      4.89877685	     23.44577930	     45.66532242	      0.00000000	      0.00000000
      4.70657143	     -4.75704632	     -2.18245002	      3.76733542	      0.97034035	      0.91312682	      0.56511812	     14.99158117	      3.87826047	     -8.59812609	     30.15732509	     30.15732509	     19.73528966	    -11.25520657	      0.69868760	     32.12992501	     -9.93631367	      3.10150697	     44.57771198	     44.57771198	     14.38424645	    -19.28893856	     17.70753708	    -11.01108643	      3.98080788	      1.81558092	     32.95122373	    -18.13432180	     -6.05562326	     88.19055844	     44.71705685	      0.00000000	      0.00000000	     -3.41944326	     -8.34731805	     10.87152113	     26.21792476	     44.54938222	      0.00000000	      0.00000000
      4.72542857	     -4.88605717	     -1.90240268	      4.14787525	      0.96813122	      0.91519939	      0.56423545	     14.35021308	      3.42816604	     -9.17343416	     29.23271772	     29.23271772	     19.55952454	    -10.48701050	      0.77434343	     32.04208759	     -9.09690979	      3.37326797	     41.00521500	     41.00521500	     13.32718368	    -19.02663412	     17.50639949	    -10.79456114	      3.69893728	      1.96418772	     35.58040231	    -18.10691889	     -6.14236490	     90.35086609	     44.67038878	      0.00000000	      0.00000000	     -4.86325899	     -8.50996151	     11.04588098	     26.19627651	     44.50222131	      0.00000000	      0.00000000
      4.74428571	     -4.96211928	     -1.72015358	      4.55391166	      0.96611612	      0.91739764	      0.56315955	     13.59086521	      3.05148070	     -9.92988916	     28.21900473	     28.21900473	     19.36909764	     -9.48788238	      0.75419559	     31.76188367	     -8.39502910	      3.67268103	     37.34890921	     37.34890921	     12.06699544	    -18.58108347	     16.78098541	    -10.62953033	      3.51214197	      2.14139724	     38.09321359	    -18.29070679	     -6.13476782	     92.31350645	     44.62683807	      0.00000000	      0.00000000	     -6.29816385	     -8.69989952	     11.26805680	     26.54761491	     44.44248181	      0.00000000	      0.00000000
      4.76314286	     -5.43310600	     -1.77650307	      4.91044638	      0.96389921	      0.91858027	      0.56204580	     13.47369901	      2.96122516	    -10.41807177	     27.50634105	     27.50634105	     19.08610473	     -9.09886200	      0.86781719	     32.16074722	     -8.02473215	      3.89501795	     34.31750904	     34.31750904	     11.46267178	    -17.32505726	     16.86937641	     -9.85806989	      3.56323760	      2.72208500	     40.66082477	    -18.90727650	     -6.43798482	     93.35518659	     44.61661382	      0.00000000	      0.00000000	     -7.41812093	     -8.71974326	     11.34705642	     26.49691280	     44.41051808	      0.00000000	      0.00000000
      4.78200000	     -5.19446345	     -1.56169281	      5.26747282	      0.96257532	      0.92098488	      0.56055333	     12.09639093	      2.45668180	    -11.74780951	     26.13153014	     26.13153014	     18.82995762	     -6.92905407	     -0.16751028	     31.01892043	     -7.53586217	      3.74374160	     30.21339666	     30.21339666	      7.84017822	    -16.80789489	      9.56540898	    -10.08253853	      3.37374502	      2.50312558	     43.36603369	    -18.99815241	     -5.21285974	     95.77675312	     44.56331434	      0.00000000	      0.00000000	    -10.11074789	     -9.73894186	     13.47811858	     30.88554934	     44.04678958	      0.00000000	      0.00000000
